<?xml version="1.0" encoding="UTF-8" standalone="no"?>
<svg
   xmlns:dc="http://purl.org/dc/elements/1.1/"
   xmlns:cc="http://creativecommons.org/ns#"
   xmlns:rdf="http://www.w3.org/1999/02/22-rdf-syntax-ns#"
   xmlns:svg="http://www.w3.org/2000/svg"
   xmlns="http://www.w3.org/2000/svg"
   viewBox="0 0 27.719517 20.238327"
   height="20.238327"
   width="27.719517"
   id="svg878"
   version="1.1">
  <metadata
     id="metadata884">
    <rdf:RDF>
      <cc:Work
         rdf:about="">
        <dc:format>image/svg+xml</dc:format>
        <dc:type
           rdf:resource="http://purl.org/dc/dcmitype/StillImage" />
        <dc:title></dc:title>
      </cc:Work>
    </rdf:RDF>
  </metadata>
  <defs
     id="defs882" />
  <path
     id="path1431"
     d="m 2.6848865,20.213711 c -0.682381,-0.117177 -1.253806,-0.413325 -1.75000502,-0.906961 -0.446706,-0.444399 -0.733648,-0.979104 -0.880338,-1.64048 l -0.04544,-0.204853 -0.0071,-7.2 c -0.0052,-5.2484957 -5.35e-4,-7.2578202 0.01702,-7.4133312 0.06284,-0.556812 0.268559,-1.075488 0.613447,-1.546666 0.124948,-0.170701 0.52637802,-0.58411299 0.55578002,-0.57236899 0.0097,0.0039 2.865584,1.81969099 6.3464373,4.03515949 l 6.3288252,4.028126 6.328826,-4.028126 c 3.480853,-2.2154685 6.337209,-4.03144249 6.347455,-4.03549849 0.01025,-0.0041 0.121869,0.09674 0.248047,0.224 0.462562,0.46651299 0.759192,1.02562499 0.892796,1.68281399 0.03716,0.182801 0.03888,0.512229 0.03888,7.4765582 0,7.025811 -0.0014,7.292932 -0.03989,7.498666 -0.122494,0.655153 -0.427917,1.238848 -0.887441,1.696 -0.455313,0.452962 -0.962044,0.730613 -1.622006,0.888743 -0.15281,0.03661 -0.658009,0.0385 -11.242666,0.04201 -8.9560975,0.003 -11.1133675,-0.0016 -11.2426655,-0.02379 z M 24.530218,11.955135 c 0,-5.1511817 -0.0047,-6.1764607 -0.02855,-6.1673267 -0.0157,0.006 -2.408486,1.52591 -5.317301,3.377521 -2.908814,1.8516097 -5.303222,3.3665637 -5.320908,3.3665637 -0.01769,0 -2.412023,-1.514942 -5.3207492,-3.3665387 -2.9087263,-1.851597 -5.3014703,-3.371481 -5.3172083,-3.37752 -0.02389,-0.0092 -0.02861,1.009084 -0.02861,6.1673007 v 6.178282 H 13.863552 24.530218 Z M 3.9755525,1.2351568 C 3.2246195,0.75493681 2.5334195,0.31285281 2.4395535,0.25274781 l -0.170667,-0.109281 0.133791,-0.03814 C 2.7965555,-0.00696419 2.0285635,8.7808612e-5 13.863552,8.7808612e-5 c 11.832364,0 11.065342,-0.0069999986 11.460877,0.104985001388 l 0.133789,0.03789 -0.149333,0.09639 c -0.08213,0.05302 -0.776525,0.496068 -1.543091,0.98456299 l -1.393756,0.888173 -8.515576,-0.0019 -8.5155755,-0.0019 z"
     style="fill:#ffffff;stroke-width:0.02133333" />
</svg>
