<?xml version="1.0" encoding="UTF-8" standalone="no"?>
<svg
   xmlns:dc="http://purl.org/dc/elements/1.1/"
   xmlns:cc="http://creativecommons.org/ns#"
   xmlns:rdf="http://www.w3.org/1999/02/22-rdf-syntax-ns#"
   xmlns:svg="http://www.w3.org/2000/svg"
   xmlns="http://www.w3.org/2000/svg"
   viewBox="0 0 5.1881399 5.1905708"
   height="5.1905708"
   width="5.1881399"
   id="svg1506"
   version="1.1">
  <metadata
     id="metadata1512">
    <rdf:RDF>
      <cc:Work
         rdf:about="">
        <dc:format>image/svg+xml</dc:format>
        <dc:type
           rdf:resource="http://purl.org/dc/dcmitype/StillImage" />
        <dc:title></dc:title>
      </cc:Work>
    </rdf:RDF>
  </metadata>
  <defs
     id="defs1510" />
  <path
     id="path2059"
     d="M 1.3214733,5.1832528 C 0.65257952,5.0955872 0.12321244,4.5879388 0.01530094,3.9306696 c -0.0156997003,-0.095624 -0.0171361,-0.238629 -0.013875,-1.3813334 0.003356,-1.1758501 0.005105,-1.2808686 0.0225667,-1.3546667 0.050581,-0.21377152 0.1488226,-0.42939722 0.2679668,-0.58814782 0.087908,-0.11713 0.25648498,-0.27829 0.37034548,-0.3540503 0.1171098,-0.077922 0.287664,-0.15877669 0.40835828,-0.19359019 0.209223,-0.060349 0.1712651,-0.058877997264 1.519661,-0.058877997264 1.3696789,0 1.3326134,-0.00159000274 1.5471492,0.066194997264 C 4.6596066,0.23116148 5.0417803,0.65646788 5.164072,1.2086604 L 5.18814,1.3173368 v 1.2746667 c 0,1.181719 -0.00139,1.2814879 -0.01905,1.3682123 -0.063716,0.3128728 -0.1972927,0.561462 -0.4229507,0.78712 -0.2207958,0.2207951 -0.4488472,0.3459129 -0.7633323,0.4187929 -0.094126,0.021813 -0.120355,0.022286 -1.344,0.024229 -0.6864,0.00109 -1.2792,-0.00211 -1.3173334,-0.00711 z M 3.7854734,4.789065 C 3.9335357,4.7736232 4.0424841,4.7424909 4.1748067,4.6778121 4.3989105,4.568271 4.5671653,4.4000016 4.6765728,4.1760029 4.7441747,4.037596 4.7732782,3.9326814 4.7888152,3.7713825 4.7963688,3.6929634 4.798816,3.2684091 4.7961051,2.5066695 4.7915786,1.2348157 4.7957243,1.3105006 4.719425,1.1067555 4.6503671,0.92234758 4.5128399,0.73886248 4.3529565,0.61782308 4.2112699,0.51055968 4.0114888,0.42825858 3.8373615,0.40542028 c -0.061534,-0.008071 -0.464919,-0.0107022 -1.2998882,-0.00848 l -1.2106666,0.00322 -0.1026014,0.028284 C 0.82727722,0.53786868 0.53654122,0.82770428 0.42808884,1.2220976 l -0.029122,0.1059053 -0.00322,1.2106666 c -0.00222,0.8349692 4.093e-4,1.2383542 0.00848,1.2998882 0.065152,0.4967462 0.48331478,0.9014946 0.98124906,0.9497715 0.1325799,0.012854 2.277498,0.013512 2.4000001,7.358e-4 z M 2.3508067,3.9721147 C 2.2142738,3.9476233 2.0967662,3.9073784 1.9632916,3.8393952 1.7776061,3.7448194 1.6307459,3.6274285 1.5114883,3.4782516 1.1167314,2.9844585 1.0889958,2.3301677 1.4405471,1.8047263 c 0.07051,-0.1053864 0.2575966,-0.2924732 0.362983,-0.362983 0.5385958,-0.3603524 1.212291,-0.3219539 1.7049605,0.097177 0.238927,0.2032635 0.4085274,0.5031433 0.4624192,0.8176284 0.021979,0.128259 0.022329,0.3526961 7.435e-4,0.4767231 C 3.9246558,3.1033074 3.799091,3.3509247 3.606565,3.5532366 3.3941777,3.7764193 3.1260601,3.9216835 2.8320766,3.9728491 2.7138817,3.9934201 2.4674825,3.993044 2.3508071,3.9721142 Z M 2.7894944,3.5742975 C 3.1941139,3.4907927 3.4889349,3.1939971 3.5745312,2.7840029 3.6009418,2.6574998 3.5958722,2.4707523 3.5625767,2.3436426 3.4729888,2.0016283 3.2004952,1.723784 2.8644778,1.6318354 2.5143944,1.5360379 2.1394115,1.6339367 1.886076,1.8872722 1.5040468,2.2693014 1.4964591,2.8948754 1.8691471,3.2829913 2.1108261,3.5346748 2.4544607,3.6434412 2.7894944,3.5742975 Z M 4.1095684,1.1742629 C 4.0435702,1.1442919 4.0063331,1.0888355 4.0007948,1.0122686 c -0.00559,-0.077287 0.00892,-0.11502732 0.062989,-0.16387982 0.048869,-0.04415 0.076747,-0.052543 0.1534124,-0.046185 0.1330312,0.011032 0.2123108,0.1480425 0.1561163,0.26979962 -0.048432,0.1049388 -0.161397,0.148738 -0.2637441,0.1022595 z"
     style="fill:#ffffff;stroke-width:0.01066667" />
</svg>
