<?xml version="1.0" encoding="UTF-8" standalone="no"?>
<svg
   xmlns:dc="http://purl.org/dc/elements/1.1/"
   xmlns:cc="http://creativecommons.org/ns#"
   xmlns:rdf="http://www.w3.org/1999/02/22-rdf-syntax-ns#"
   xmlns:svg="http://www.w3.org/2000/svg"
   xmlns="http://www.w3.org/2000/svg"
   viewBox="0 0 435.78464 467.22745"
   height="467.22745"
   width="435.78464"
   id="svg2134"
   version="1.1">
  <metadata
     id="metadata2140">
    <rdf:RDF>
      <cc:Work
         rdf:about="">
        <dc:format>image/svg+xml</dc:format>
        <dc:type
           rdf:resource="http://purl.org/dc/dcmitype/StillImage" />
        <dc:title></dc:title>
      </cc:Work>
    </rdf:RDF>
  </metadata>
  <defs
     id="defs2138" />
  <path
     id="path2687"
     d="M 291.88085,466.8317 C 280.8434,465.44698 262.48152,462.22413 257.80294,460.8504 247.10602,457.70956 224.178,448.14689 213.38085,442.32313 175.9904,422.15549 145.17112,396.50328 101.7424,349.40164 86.914873,333.3201 65.268145,306.02426 58.161915,294.44803 c -1.18168,-1.925 -3.11734,-4.53555 -4.30146,-5.80121 -3.40127,-3.63553 -21.54825,-34.26275 -26.64937,-44.977 -2.54574,-5.34698 -5.19536,-10.84679 -5.88804,-12.22179 -5.47969,-10.87742 -13.9191799,-36.48976 -17.3846899,-52.75942 -4.76818004,-22.38536 -5.24773,-49.12838 -1.2147,-67.74058 4.66537,-21.530421 14.1842799,-44.112441 23.8162099,-56.500001 7.886,-10.14212 17.41817,-20.54911 22.89849,-25 9.07643,-7.371504 16.00617,-13.410791 21.4425,-18.687186 2.475,-2.4021867 6.86977,-5.4969047 9.76615,-6.8771507 22.828565,-10.878745 41.395545,0.6011 65.867825,40.7256367 2.12631,3.48628 4.54102,7.09067 5.36602,8.00974 2.08177,2.31915 15.10768,26.273 17.2911,31.79729 0.9851,2.49242 1.98643,5.65667 2.22516,7.03167 2.70034,15.552591 2.81209,17.194441 1.67015,24.539681 -1.27942,8.22955 -2.66911,11.51912 -7.90864,18.72077 -4.14115,5.69194 -20.44437,20.05589 -32.35531,28.50665 -12.71833,9.02359 -18.87449,19.38325 -18.91059,31.82294 -0.0158,5.43583 3.14408,17.5358 6.94267,26.58539 5.54695,13.21485 19.91981,34.66932 37.06324,55.32457 37.64807,45.36025 69.12695,68.5 93.18611,68.5 10.25555,0 16.43358,-3.32002 28.79611,-15.47479 22.14075,-21.76866 33.56549,-29.55438 46.25,-31.51843 19.29064,-2.98693 38.55365,6.05095 67.12581,31.4943 0.61831,0.5506 6.22654,5.48426 12.46273,10.9637 15.18083,13.33864 25.26669,25.89845 28.06035,34.94328 3.48411,11.28025 2.46594,19.67593 -3.35827,27.69184 -3.10262,4.27016 -23.85821,23.6139 -34.4347,32.09236 -2.53326,2.03074 -5.95592,4.77172 -7.60592,6.09108 -6.26779,5.01178 -24.76949,14.30716 -37.42391,18.80202 -12.08891,4.294 -46.12674,7.92289 -59.07609,6.29831 z"
     style="fill:#ffffff" />
</svg>
