<?xml version="1.0" encoding="UTF-8" standalone="no"?>
<svg
   xmlns:dc="http://purl.org/dc/elements/1.1/"
   xmlns:cc="http://creativecommons.org/ns#"
   xmlns:rdf="http://www.w3.org/1999/02/22-rdf-syntax-ns#"
   xmlns:svg="http://www.w3.org/2000/svg"
   xmlns="http://www.w3.org/2000/svg"
   viewBox="0 0 22.186802 17.88323"
   height="17.88323"
   width="22.186802"
   id="svg2762"
   version="1.1">
  <metadata
     id="metadata2768">
    <rdf:RDF>
      <cc:Work
         rdf:about="">
        <dc:format>image/svg+xml</dc:format>
        <dc:type
           rdf:resource="http://purl.org/dc/dcmitype/StillImage" />
        <dc:title></dc:title>
      </cc:Work>
    </rdf:RDF>
  </metadata>
  <defs
     id="defs2766" />
  <path
     id="path3315"
     d="m 9.3880351,17.820028 c -0.763778,-0.205406 -1.519158,-0.94349 -2.129963,-2.081193 -0.445111,-0.829075 -0.497423,-0.988105 -1.982847,-6.0278677 -0.273113,-0.926621 -0.586346,-1.933135 -0.696075,-2.236699 -0.227838,-0.630318 -0.599642,-1.402242 -0.819969,-1.702387 -0.199026,-0.271128 -0.513296,-0.556998 -0.69647,-0.633534 -0.313981,-0.131189 -0.48425,-0.06921 -1.426415,0.519249 -0.428461,0.267608 -0.617602,0.363706 -0.65490796,0.332746 -0.126222,-0.104756 -0.999103,-1.179461 -0.98111399701,-1.207965 C 0.05352414,4.6979973 3.2740121,2.0414823 3.8298881,1.6234053 c 1.027737,-0.77296697 1.882708,-1.23975937 2.513095,-1.37208567 0.356419,-0.074817 1.002586,-0.026144 1.352719,0.101895 0.715523,0.2616571 1.261608,0.85542367 1.605719,1.74592467 0.21654,0.560366 0.325794,1.059469 0.670571,3.063342 0.3903009,2.268465 0.4850649,2.737847 0.7356099,3.6436 0.426745,1.5427437 0.842872,2.3683297 1.304026,2.5871627 0.293236,0.139149 0.626801,-0.01649 1.134857,-0.529517 0.945126,-0.9543707 2.322338,-3.1990917 2.578057,-4.2019807 0.09006,-0.353201 0.121211,-0.970676 0.06147,-1.218511 -0.08645,-0.358631 -0.314222,-0.630771 -0.666026,-0.795749 -0.2265,-0.106216 -0.283629,-0.113752 -0.850838,-0.112229 -0.520266,0.0014 -0.667592,0.01815 -1.020629,0.116055 -0.226928,0.06293 -0.447015,0.127889 -0.489084,0.14435 -0.202789,0.07935 0.500242,-1.491134 1.006273,-2.247887 0.871679,-1.303569 2.036956,-2.10307747 3.543614,-2.43130847 0.27768,-0.060494 0.629855,-0.091636 1.216069,-0.1075335 0.721551,-0.019568 0.879737,-0.011118 1.259501,0.067283 1.143078,0.2359847 1.881928,0.923599 2.210413,2.05713397 0.225091,0.776739 0.254671,1.90636 0.07322,2.796039 -0.362518,1.777462 -1.659423,4.057143 -3.863996,6.7920737 -3.030593,3.75967 -5.370652,5.666588 -7.484037,6.098754 -0.411212,0.08409 -1.0193989,0.084 -1.3324569,-1.73e-4 z"
     style="fill:#ffffff;stroke-width:0.04343105" />
</svg>
